<svg xmlns="http://www.w3.org/2000/svg" version="1.1" xmlns:xlink="http://www.w3.org/1999/xlink" xmlns:svgjs="http://svgjs.dev/svgjs" width="2000" height="1500" viewBox="0 0 2000 1500"><rect width="2000" height="1500" fill="#004051"></rect><g transform="matrix(0.4444444444444444,0,0,0.4444444444444444,555.5556208333335,250)"><svg viewBox="0 0 320 360" data-background-color="#004051" preserveAspectRatio="xMidYMid meet" height="2250" width="2000" xmlns="http://www.w3.org/2000/svg" xmlns:xlink="http://www.w3.org/1999/xlink"><g id="tight-bounds" transform="matrix(1,0,0,1,0.000023499999997511622,0)"><svg viewBox="0 0 320 360" height="360" width="320"><g><svg></svg></g><g><svg viewBox="0 0 320 360" height="360" width="320"><g><path transform="translate(-74.99272,-51.79039) scale(4.65793,4.65793)" d="M20.6 59.9l0.8 1-0.4-1.3c-0.1-0.6-0.8 0.1-0.4 0.3M21.5 59.3c0.3 0.5 0.6 1 0.6 1.5 0 0.7 0.6 1 1.1 1.2-0.7-0.8-1.1-3-1.7-2.7M59.9 16.9c1.7 0 3.3-0.2 5.1 0.2 4.4 1.1 8.1 3.3 10.6 6.4l7 11.2c0.3 2.8 0.9 5.9 0.8 9.3 0.7 0 0.6-1 1.4-1.2-0.8 2-1.2 4.5-1.4 7.4-0.5-1.6 0-4 0.1-5.3-0.7 1.1-1.1 0.3-1.1-0.2 0.1-0.8-0.3-0.7-0.6-1-1.1-1-1.8-2.1-2.6-3.8 0.5-1.3 0.6-3.2-1-4.2-0.5-0.3-1.1-0.8-1.4-1.6-0.4-1.1-1.1-2.4-0.9-4.1 0.1-0.5-1.5 1.1-2.4 0.4-3.9-2.7-7.8-5.8-12.5-8.4-2.5 0-4.3-0.9-5.2-2-0.8-1-0.2-2.3 1-2.4 0.7 0 1.5-0.2 2.1 0.2 0.1-0.4 0.5-0.9 1-0.9M50 14.6l0.2 0.1c1 0.2 1.5 1.6 2.6 1.1 0 0.7 0.1 1.4-0.1 1.9-0.3 0.8-1.2 0.8-1.9 0.8-6.7-0.4-10.6 2.4-14.7 4.8-1.1 0.7-2.3 1.2-3.2 2.1-4.3 4-9 7.7-10.1 15.1l-0.9 8.2c-0.1 0.9-1.1 1.8-0.9 2.9l0.7 4.9c-0.7-0.7-1.1 0.2-0.9 0.6 0.1 0.3 0.5 1.3 1.1 0.4 0.8 1.5 1.6 4.4 2.7 5.7 3.4 4 7.8 7.6 11.4 11.2 0.9-0.2 1.6-0.2 1.8-0.8 0.3 0.6-0.3 1.2-0.8 1.3 1.6 1 3.4 1.9 5.8 2.1 3.1 0.2 6 0.7 8.7 1.4 1.4-0.4 2.8-0.6 4.3-0.7 0.5 0 0.8-0.8 1.4-1l0.1-1c0.6 0.9 0.5-0.3 0.1-0.9 0.7 0.6 0.9 1.1 1.2 1.5 0-0.3 0.8-1.4 0.8-0.1l0.2-1.3c0.3-0.2 0.4 1.1 0.7 0.2 0.3-0.9 0.9-0.2 1.5-0.5-0.2 0.4-0.1 1.2 0.6 0.7l0.8-0.7c0.5 1.2 1.3 0.7 1.7 0.5 4.4-2.8 8.8-6.1 13-9.4l-0.1 1.3 0.5-1.6c0.5 0.5 0.9 0.1 1.1-0.2 0.6-1 1.4-2 2.7-2.9-1.6 4.3-3.5 7.7-5.9 10.5l-1 1.2c0 0.7-0.2 1.6-1 1.7-0.4 0.1-1.2-0.2-1.8 0.4-0.3 0.4 0.7 1.2-0.1 0.6-0.7-0.5-1.4 0-2.2 0.2-0.6 0.2 0.4 0.8 0.6 1.2 0.2 0.4 0.4 0.8 0.3 1.3l-1.1-1.2c-1.3 0.7-2.1 2-3.2 3-0.5 0.4-0.3 1.1-0.3 1.7-0.7 0-1.5-0.2-1.9 0.2-0.3 0.4-0.2 1-0.2 1.6-1-0.1-1.1-1.6-2-1.3-0.9 0.2-1.9 0.3-2.7 0.8 0.6 1.2-1 0.5-0.8 0.7-1.5-0.9-2.8-1.6-4.4-1-3.4-1.1-7.6-0.6-10.7-0.2 0-0.5 0.1-1-0.1-1.1-0.2 0.5-0.8 0.3-0.7 0.3-1.9-1.3-3.8-2.1-5.8-3.2-1.8 0.2-3.5-0.7-4-1.2-1.4-1.3-3-0.6-4.3-0.9-2.8-0.7-3.8-3.6-4.1-5.6-0.2-1-1-1.4-1.3-1.3-1.3-4.2-3.3-8-4.9-11.9-0.4-1-0.3-2-0.3-3.1 0.5 0.2 1 0.1 0.9-0.6-0.5-3.3-1.7-5.8-3-8.2 0.7-3.4 0.8-7.4 2.4-10.4 1.4-2.7 4-4.1 5.8-6.4 0.6-0.8 0.6-1.9 1.2-2.6 2-2 4-4.1 6.2-5.9 1-0.8 2.2 0 3.7-0.3 0.5-1.8 2.5-3.4 4.4-2.9 0.8 0.2 2.4-1.9 2.9-2.1 0.8-0.3 0.4 0.8 0.4 1.5 1.9-1.5 4.5-2.3 6.9-3.2" fill="#32fd6b" fill-rule="nonzero" stroke="none" stroke-width="1" stroke-linecap="butt" stroke-linejoin="miter" stroke-miterlimit="10" stroke-dasharray="" stroke-dashoffset="0" font-family="none" font-weight="none" font-size="none" text-anchor="none" style="mix-blend-mode: normal" data-fill-palette-color="tertiary"></path></g><g transform="matrix(1,0,0,1,64,118.18823669928156)"><svg viewBox="0 0 192 123.62352660143688" height="123.62352660143688" width="192"><g><svg viewBox="0 0 192 123.62352660143688" height="123.62352660143688" width="192"><g><svg viewBox="0 0 192 123.62352660143688" height="123.62352660143688" width="192"><g transform="matrix(1,0,0,1,0,74.72034493876154)"><svg viewBox="0 0 192 48.90318166267533" height="48.90318166267533" width="192"><g id="textblocktransform"><svg viewBox="0 0 192 48.90318166267533" height="48.90318166267533" width="192" id="textblock"><g><svg viewBox="0 0 192 48.90318166267533" height="48.90318166267533" width="192"><g transform="matrix(1,0,0,1,0,0)"><svg width="192" viewBox="4.85 -36.83 146.14000000000001 37.23" height="48.90318166267533" data-palette-color="#32fd6b"><path d="M13.35-14.95L9.68-14.95 9.68 0 4.85 0 4.85-35.83 14.98-35.83Q18.38-35.83 20.85-35.14 23.33-34.45 24.94-33.15 26.55-31.85 27.33-30.01 28.1-28.18 28.1-25.9L28.1-25.9Q28.1-24 27.5-22.35 26.9-20.7 25.76-19.39 24.63-18.07 22.99-17.15 21.35-16.23 19.28-15.75L19.28-15.75Q20.18-15.23 20.88-14.23L20.88-14.23 31.33 0 27.03 0Q25.7 0 25.08-1.03L25.08-1.03 15.78-13.83Q15.35-14.43 14.85-14.69 14.35-14.95 13.35-14.95L13.35-14.95ZM9.68-32L9.68-18.48 14.75-18.48Q16.88-18.48 18.49-18.99 20.1-19.5 21.19-20.44 22.28-21.38 22.83-22.68 23.38-23.98 23.38-25.55L23.38-25.55Q23.38-28.75 21.26-30.38 19.15-32 14.98-32L14.98-32 9.68-32ZM35.25-25.33L39.7-25.33 39.7-9.18Q39.7-6.3 41.02-4.73 42.35-3.15 45.02-3.15L45.02-3.15Q46.97-3.15 48.7-4.08 50.42-5 51.87-6.65L51.87-6.65 51.87-25.33 56.32-25.33 56.32 0 53.67 0Q52.72 0 52.47-0.93L52.47-0.93 52.12-3.65Q50.47-1.83 48.42-0.71 46.37 0.4 43.72 0.4L43.72 0.4Q41.65 0.4 40.06-0.29 38.47-0.98 37.4-2.23 36.32-3.48 35.79-5.25 35.25-7.03 35.25-9.18L35.25-9.18 35.25-25.33ZM79.15-22.78L78.15-21.15Q77.84-20.6 77.22-20.6L77.22-20.6Q76.84-20.6 76.37-20.88 75.9-21.15 75.21-21.49 74.52-21.83 73.57-22.11 72.62-22.4 71.32-22.4L71.32-22.4Q70.2-22.4 69.3-22.11 68.4-21.83 67.76-21.33 67.12-20.83 66.78-20.16 66.45-19.5 66.45-18.73L66.45-18.73Q66.45-17.75 67.01-17.1 67.57-16.45 68.5-15.98 69.42-15.5 70.59-15.14 71.77-14.78 73.01-14.36 74.25-13.95 75.42-13.45 76.59-12.95 77.52-12.2 78.45-11.45 79.01-10.36 79.57-9.28 79.57-7.75L79.57-7.75Q79.57-6 78.95-4.51 78.32-3.03 77.09-1.94 75.87-0.85 74.09-0.23 72.32 0.4 70 0.4L70 0.4Q67.34 0.4 65.2-0.46 63.05-1.33 61.55-2.68L61.55-2.68 62.6-4.38Q62.8-4.7 63.07-4.88 63.35-5.05 63.8-5.05L63.8-5.05Q64.25-5.05 64.75-4.7 65.25-4.35 65.96-3.93 66.67-3.5 67.68-3.15 68.7-2.8 70.22-2.8L70.22-2.8Q71.52-2.8 72.5-3.14 73.47-3.48 74.12-4.05 74.77-4.63 75.08-5.38 75.4-6.13 75.4-6.98L75.4-6.98Q75.4-8.03 74.83-8.71 74.27-9.4 73.34-9.89 72.42-10.38 71.23-10.74 70.05-11.1 68.81-11.5 67.57-11.9 66.38-12.41 65.2-12.93 64.27-13.7 63.35-14.48 62.78-15.61 62.22-16.75 62.22-18.38L62.22-18.38Q62.22-19.83 62.82-21.16 63.42-22.5 64.57-23.51 65.72-24.53 67.4-25.13 69.07-25.73 71.22-25.73L71.22-25.73Q73.72-25.73 75.71-24.94 77.7-24.15 79.15-22.78L79.15-22.78ZM100.84-22.78L99.84-21.15Q99.54-20.6 98.92-20.6L98.92-20.6Q98.54-20.6 98.07-20.88 97.59-21.15 96.91-21.49 96.22-21.83 95.27-22.11 94.32-22.4 93.02-22.4L93.02-22.4Q91.89-22.4 90.99-22.11 90.09-21.83 89.46-21.33 88.82-20.83 88.48-20.16 88.14-19.5 88.14-18.73L88.14-18.73Q88.14-17.75 88.71-17.1 89.27-16.45 90.19-15.98 91.12-15.5 92.29-15.14 93.47-14.78 94.71-14.36 95.94-13.95 97.12-13.45 98.29-12.95 99.22-12.2 100.14-11.45 100.71-10.36 101.27-9.28 101.27-7.75L101.27-7.75Q101.27-6 100.64-4.51 100.02-3.03 98.79-1.94 97.57-0.85 95.79-0.23 94.02 0.4 91.69 0.4L91.69 0.4Q89.04 0.4 86.89-0.46 84.74-1.33 83.24-2.68L83.24-2.68 84.29-4.38Q84.49-4.7 84.77-4.88 85.04-5.05 85.49-5.05L85.49-5.05Q85.94-5.05 86.44-4.7 86.94-4.35 87.66-3.93 88.37-3.5 89.38-3.15 90.39-2.8 91.92-2.8L91.92-2.8Q93.22-2.8 94.19-3.14 95.17-3.48 95.82-4.05 96.47-4.63 96.78-5.38 97.09-6.13 97.09-6.98L97.09-6.98Q97.09-8.03 96.53-8.71 95.97-9.4 95.04-9.89 94.12-10.38 92.93-10.74 91.74-11.1 90.51-11.5 89.27-11.9 88.08-12.41 86.89-12.93 85.97-13.7 85.04-14.48 84.48-15.61 83.92-16.75 83.92-18.38L83.92-18.38Q83.92-19.83 84.52-21.16 85.12-22.5 86.27-23.51 87.42-24.53 89.09-25.13 90.77-25.73 92.92-25.73L92.92-25.73Q95.42-25.73 97.41-24.94 99.39-24.15 100.84-22.78L100.84-22.78ZM117.07-25.73L117.07-25.73Q119.34-25.73 121.27-24.96 123.19-24.2 124.59-22.76 125.99-21.33 126.78-19.21 127.57-17.1 127.57-14.4L127.57-14.4Q127.57-13.35 127.34-13 127.12-12.65 126.49-12.65L126.49-12.65 109.64-12.65Q109.69-10.25 110.29-8.47 110.89-6.7 111.94-5.51 112.99-4.33 114.44-3.74 115.89-3.15 117.69-3.15L117.69-3.15Q119.37-3.15 120.58-3.54 121.79-3.93 122.67-4.38 123.54-4.83 124.13-5.21 124.72-5.6 125.14-5.6L125.14-5.6Q125.69-5.6 125.99-5.18L125.99-5.18 127.24-3.55Q126.42-2.55 125.27-1.81 124.12-1.07 122.8-0.6 121.49-0.13 120.09 0.11 118.69 0.35 117.32 0.35L117.32 0.35Q114.69 0.35 112.48-0.54 110.27-1.43 108.65-3.14 107.04-4.85 106.14-7.38 105.24-9.9 105.24-13.18L105.24-13.18Q105.24-15.83 106.05-18.13 106.87-20.43 108.39-22.11 109.92-23.8 112.12-24.76 114.32-25.73 117.07-25.73ZM117.17-22.45L117.17-22.45Q113.94-22.45 112.09-20.59 110.24-18.73 109.79-15.43L109.79-15.43 123.57-15.43Q123.57-16.98 123.14-18.26 122.72-19.55 121.89-20.49 121.07-21.43 119.88-21.94 118.69-22.45 117.17-22.45ZM133.74-36.83L138.19-36.83 138.19 0 133.74 0 133.74-36.83ZM146.54-36.83L150.99-36.83 150.99 0 146.54 0 146.54-36.83Z" opacity="1" transform="matrix(1,0,0,1,0,0)" fill="#32fd6b" class="wordmark-text-0" data-fill-palette-color="primary" id="text-0"></path></svg></g></svg></g></svg></g></svg></g><g transform="matrix(1,0,0,1,62.06812029827268,0)"><svg viewBox="0 0 67.86375940345464 67.5841970578173" height="67.5841970578173" width="67.86375940345464"><g><svg xmlns="http://www.w3.org/2000/svg" xmlns:xlink="http://www.w3.org/1999/xlink" version="1.1" x="0" y="0" viewBox="1.5999999999999996 1.700000000000026 97.10000000000001 96.69999999999997" enable-background="new 0 0 100 100" xml:space="preserve" height="67.5841970578173" width="67.86375940345464" class="icon-icon-0" data-fill-palette-color="accent" id="icon-0"><g fill="#32fd6b" data-fill-palette-color="accent"><path d="M28.7 15.7c-3.6-3.6-9.4-3.6-13 0-3.6 3.6-3.6 9.4 0 13 2.8 2.8 7.1 3.4 10.5 1.8l8.5 8.5c-1.7 2.3-2.8 5-3.3 7.9H19.4c-1.3-3.5-4.7-6.1-8.6-6.1-5.1 0-9.2 4.1-9.2 9.2 0 5.1 4.1 9.2 9.2 9.2 4 0 7.4-2.6 8.7-6.2h12c0.5 2.9 1.6 5.6 3.2 7.9l-8.5 8.5c-3.4-1.6-7.6-1-10.4 1.8-3.6 3.6-3.6 9.4 0 13 3.6 3.6 9.4 3.6 13 0 2.8-2.8 3.4-7.1 1.8-10.5l8.5-8.5c2.3 1.7 5.1 2.8 8 3.3v12c-3.6 1.2-6.2 4.7-6.2 8.7 0 5.1 4.1 9.2 9.2 9.2 5.1 0 9.2-4.1 9.2-9.2 0-4-2.5-7.4-6.1-8.6v-12c2.9-0.5 5.6-1.6 7.9-3.3l8.5 8.5c-1.7 3.4-1.1 7.7 1.8 10.5 3.6 3.6 9.4 3.6 13 0 3.6-3.6 3.6-9.4 0-13-2.8-2.8-7-3.4-10.4-1.8l-8.5-8.5c1.7-2.3 2.8-5 3.3-7.9h12c1.2 3.6 4.7 6.2 8.7 6.2 5.1 0 9.2-4.1 9.2-9.2 0-5.1-4.1-9.2-9.2-9.2-4 0-7.4 2.5-8.6 6.1h-12c-0.5-2.9-1.6-5.6-3.3-7.9l8.5-8.5c3.4 1.7 7.7 1.1 10.5-1.8 3.6-3.6 3.6-9.4 0-13-3.6-3.6-9.4-3.6-13 0-2.8 2.8-3.4 7-1.8 10.4l-8.5 8.5c-2.3-1.6-4.9-2.8-7.8-3.2v-12c3.5-1.3 6.1-4.7 6.1-8.6 0-5.1-4.1-9.2-9.2-9.2-5.1 0-9.2 4.1-9.2 9.2 0 4 2.6 7.4 6.2 8.7v12c-2.9 0.5-5.6 1.6-7.9 3.3l-8.5-8.5C32.2 22.7 31.6 18.6 28.7 15.7zM24.6 24.6c-1.3 1.3-3.4 1.3-4.7 0-1.3-1.3-1.3-3.4 0-4.7s3.4-1.3 4.7 0C25.9 21.2 25.9 23.3 24.6 24.6zM10.7 53.3c-1.8 0-3.3-1.5-3.3-3.3s1.5-3.3 3.3-3.3c1.8 0 3.3 1.5 3.3 3.3S12.6 53.3 10.7 53.3zM24.6 80.1c-1.3 1.3-3.4 1.3-4.7 0-1.3-1.3-1.3-3.4 0-4.7 1.3-1.3 3.4-1.3 4.7 0S25.9 78.8 24.6 80.1zM75.4 75.4c1.3-1.3 3.4-1.3 4.7 0 1.3 1.3 1.3 3.4 0 4.7-1.3 1.3-3.4 1.3-4.7 0C74.1 78.8 74.1 76.7 75.4 75.4zM89.3 46.7c1.8 0 3.3 1.5 3.3 3.3 0 1.8-1.5 3.3-3.3 3.3-1.8 0-3.3-1.5-3.3-3.3C85.9 48.2 87.4 46.7 89.3 46.7zM75.4 19.9c1.3-1.3 3.4-1.3 4.7 0 1.3 1.3 1.3 3.4 0 4.7-1.3 1.3-3.4 1.3-4.7 0C74.1 23.3 74.1 21.2 75.4 19.9zM53.3 89.3c0 1.8-1.5 3.3-3.3 3.3-1.8 0-3.3-1.5-3.3-3.3 0-1.8 1.5-3.3 3.3-3.3C51.8 85.9 53.3 87.4 53.3 89.3zM46.7 10.7c0-1.8 1.5-3.3 3.3-3.3 1.8 0 3.3 1.5 3.3 3.3 0 1.8-1.5 3.3-3.3 3.3C48.2 14.1 46.7 12.6 46.7 10.7zM50 38.2c6.5 0 11.8 5.3 11.8 11.8S56.5 61.8 50 61.8c-6.5 0-11.8-5.3-11.8-11.8S43.5 38.2 50 38.2z" fill="#32fd6b" data-fill-palette-color="accent"></path></g></svg></g></svg></g><g></g></svg></g></svg></g></svg></g></svg></g><defs></defs></svg><rect width="320" height="360" fill="none" stroke="none" visibility="hidden"></rect></g></svg></g></svg>